<svg width="1284" height="1602" viewBox="0 0 1284 1602" fill="none" xmlns="http://www.w3.org/2000/svg">
<path d="M158.21 259.013C157.911 258.036 158.359 256.986 159.27 256.526L264.892 203.169L373.498 160.866L481.404 118.411C481.528 118.362 481.656 118.325 481.786 118.301L591.036 97.8727L710.714 77.7459C710.829 77.7265 710.946 77.7168 711.062 77.7168H837.297C838.226 77.7168 839.045 78.3285 839.308 79.2198L944.553 435.23C944.61 435.423 944.639 435.623 944.639 435.824V517.487C944.639 517.716 944.601 517.943 944.528 518.16L829.543 857.631C829.395 858.067 829.395 858.54 829.542 858.976L853.088 928.551L969.258 1258.87C969.463 1259.45 969.913 1259.91 970.489 1260.13L1060.62 1294.54C1061.43 1294.85 1061.97 1295.63 1061.97 1296.5V1394.36C1061.97 1395.25 1061.41 1396.05 1060.56 1396.34L741.953 1507.48C741.135 1507.77 740.226 1507.52 739.665 1506.86L688.451 1446.7C687.974 1446.14 687.825 1445.37 688.059 1444.68L726.098 1331.39C726.241 1330.96 726.244 1330.5 726.106 1330.08L624.375 1014.53L601.042 942.86C600.922 942.491 600.701 942.162 600.405 941.91L343.263 723.608L279.755 655.088C279.541 654.856 279.381 654.578 279.288 654.276L158.21 259.013Z" fill="#FFC54D"/>
<path d="M117.069 1234.48C117.069 1234.04 117.355 1233.64 117.78 1233.49L481.038 1109.9C481.718 1109.67 482.424 1110.17 482.424 1110.89V1426.25C482.424 1426.66 482.193 1427.03 481.828 1427.2L118.569 1600.9C117.873 1601.23 117.068 1600.72 117.068 1599.95L117.069 1234.48Z" fill="#E6A76C"/>
<path d="M500.887 910.263C500.887 909.831 501.151 909.444 501.553 909.286L671.205 842.762C671.769 842.541 672.402 842.842 672.587 843.419L685.475 883.697C685.602 884.093 685.482 884.528 685.169 884.803L587.089 971.248C586.776 971.523 586.656 971.957 586.783 972.354L672.139 1239.3C672.208 1239.52 672.205 1239.75 672.131 1239.96L632.899 1352.65C632.816 1352.89 632.649 1353.09 632.43 1353.22L502.455 1427.71C501.756 1428.12 500.885 1427.61 500.885 1426.8L500.887 910.263Z" fill="#E6A76C"/>
<path d="M437.025 723.677C437.958 723.751 438.088 725.065 437.187 725.32L198.437 792.963C197.991 793.089 197.527 792.83 197.401 792.384L97.5732 440.033C97.4485 439.593 97.6994 439.134 98.1373 439.001L184.116 412.964C184.508 412.846 184.927 413.026 185.11 413.392L208.316 459.745C208.546 460.206 208.311 460.764 207.82 460.92L158.09 476.768C157.654 476.907 157.41 477.369 157.54 477.807L233.369 732.534C233.506 732.994 234.001 733.246 234.454 733.085L293.102 712.264C293.213 712.224 293.331 712.209 293.449 712.218L437.025 723.677Z" fill="#D9D9D9"/>
<path d="M870.993 577.52C870.258 578.098 870.877 579.265 871.768 578.979L1108.08 503.26C1108.52 503.119 1108.77 502.646 1108.62 502.205L996.877 153.451C996.737 153.015 996.274 152.772 995.836 152.903L909.807 178.774C909.416 178.892 909.166 179.274 909.216 179.68L915.525 231.132C915.588 231.643 916.093 231.978 916.588 231.837L966.784 217.53C967.223 217.404 967.682 217.654 967.816 218.091L1045.55 472.242C1045.69 472.701 1045.42 473.185 1044.95 473.301L984.578 488.398C984.464 488.427 984.357 488.479 984.264 488.552L870.993 577.52Z" fill="#D8D8D8"/>
<path fill-rule="evenodd" clip-rule="evenodd" d="M650.841 1096.63C734.949 934.298 786.48 715.719 786.48 475.295C786.48 335.927 769.164 203.899 738.225 85.9143L837.167 77.8673C838.157 77.7868 839.067 78.4112 839.349 79.3634L944.554 435.242C944.611 435.435 944.64 435.635 944.64 435.837V517.499C944.64 517.728 944.603 517.956 944.529 518.172L829.544 857.643C829.396 858.08 829.396 858.552 829.544 858.989L853.089 928.563L969.26 1258.88C969.464 1259.46 969.914 1259.92 970.49 1260.14L1060.62 1294.56C1061.44 1294.87 1061.97 1295.65 1061.97 1296.52V1394.37C1061.97 1395.26 1061.41 1396.06 1060.57 1396.35L741.955 1507.49C741.137 1507.78 740.228 1507.53 739.666 1506.87L688.452 1446.72C687.975 1446.16 687.827 1445.39 688.061 1444.69L726.1 1331.4C726.242 1330.97 726.245 1330.52 726.107 1330.09L650.841 1096.63Z" fill="#FAC047"/>
<path d="M784.677 939.837C784.759 939.795 784.836 939.742 784.905 939.68L829.435 899.278C829.844 898.906 829.895 898.281 829.551 897.849L785.503 842.386C785.124 841.909 785.23 841.211 785.733 840.868L821.109 816.749C821.494 816.487 822.005 816.51 822.365 816.805L901.267 881.583C901.453 881.736 901.581 881.949 901.629 882.185L913.191 939.17C913.267 939.543 913.135 939.927 912.846 940.175L866.424 979.965C866.328 980.047 866.217 980.112 866.098 980.155L739.362 1026.01C738.918 1026.17 738.422 1026.02 738.15 1025.63L706.556 981.079C706.186 980.557 706.365 979.829 706.934 979.538L784.677 939.837Z" fill="#DA9657"/>
<path d="M674.201 1066.42C674.053 1065.85 674.408 1065.27 674.985 1065.14L809.013 1034.73C809.109 1034.71 809.201 1034.67 809.287 1034.62L899.993 984.694C900.413 984.463 900.938 984.546 901.265 984.897L946.808 1033.69C947.279 1034.2 947.142 1035.01 946.532 1035.34L846.237 1088.38C846.155 1088.43 846.068 1088.46 845.978 1088.48L690.047 1123.7C689.494 1123.83 688.942 1123.49 688.8 1122.94L674.201 1066.42Z" fill="#DA9657"/>
<path d="M696.446 1156.95C696.298 1156.38 696.653 1155.79 697.23 1155.66L831.258 1125.26C831.354 1125.23 831.446 1125.2 831.532 1125.15L922.238 1075.22C922.659 1074.99 923.183 1075.07 923.51 1075.42L969.053 1124.22C969.525 1124.73 969.388 1125.54 968.777 1125.86L868.482 1178.91C868.4 1178.96 868.313 1178.99 868.223 1179.01L712.292 1214.23C711.739 1214.35 711.187 1214.02 711.045 1213.47L696.446 1156.95Z" fill="#DA9657"/>
<path d="M780.432 1225.79C780.287 1225.23 780.625 1224.66 781.187 1224.51L899.725 1194.13C899.819 1194.11 899.909 1194.07 899.993 1194.02L957.58 1160.45C958.143 1160.12 958.867 1160.38 959.092 1160.99L976.017 1206.93C976.182 1207.38 976.022 1207.89 975.628 1208.16L915.539 1249.59C915.444 1249.66 915.338 1249.71 915.227 1249.74L796.323 1283.04C795.757 1283.2 795.172 1282.86 795.025 1282.29L780.432 1225.79Z" fill="#DA9657"/>
<path fill-rule="evenodd" clip-rule="evenodd" d="M117.071 1536.57C190.034 1516.98 263.033 1485.12 332.362 1440.64C389.321 1404.1 439.567 1361.75 482.427 1315.55V1426.25C482.427 1426.66 482.195 1427.03 481.831 1427.2L118.572 1600.9C117.876 1601.23 117.071 1600.72 117.071 1599.95V1536.57Z" fill="#DE9F65"/>
<path fill-rule="evenodd" clip-rule="evenodd" d="M500.888 1299.13V1426.78C500.888 1427.58 501.759 1428.09 502.458 1427.69L632.433 1353.19C632.652 1353.06 632.819 1352.86 632.902 1352.62L672.134 1239.94C672.208 1239.72 672.211 1239.49 672.142 1239.27L635.721 1125.37C601.878 1187.27 556.55 1246.31 500.888 1299.13Z" fill="#DE9F65"/>
</svg>
